<svg xmlns="http://www.w3.org/2000/svg" xmlns:xlink="http://www.w3.org/1999/xlink" contentStyleType="text/css" data-diagram-type="DESCRIPTION" height="1830px" preserveAspectRatio="none" style="width:1147px;height:1830px;background:#FFFFFF;" version="1.1" viewBox="0 0 1147 1830" width="1147px" zoomAndPan="magnify"><?plantuml 1.2026.7beta1?><defs/><g><!--cluster Skyline Maintenance System--><g class="cluster" data-qualified-name="Skyline Maintenance System" data-source-line="13" id="ent0009"><rect fill="none" height="1195" rx="2.5" ry="2.5" style="stroke:#181818;stroke-width:1;" width="924.44" x="208.98" y="409.61"/><text fill="#000000" font-family="sans-serif" font-size="14" font-weight="700" lengthAdjust="spacing" textLength="227.1514" x="557.6243" y="424.6051">Skyline Maintenance System</text></g><!--entity UC_Login--><g class="entity" data-qualified-name="Skyline Maintenance System.UC_Login" data-source-line="14" id="ent0010"><ellipse cx="353.6568" cy="463.6074" fill="#F1F1F1" rx="85.4868" ry="19.4974" style="stroke:#181818;stroke-width:0.5;"/><text fill="#000000" font-family="sans-serif" font-size="14" lengthAdjust="spacing" textLength="143.4453" x="281.9341" y="468.2558">Authenticate (Login)</text></g><!--entity UC_Demo--><g class="entity" data-qualified-name="Skyline Maintenance System.UC_Demo" data-source-line="15" id="ent0011"><ellipse cx="718.7704" cy="461.6141" fill="#F1F1F1" rx="74.1704" ry="17.2341" style="stroke:#181818;stroke-width:0.5;"/><text fill="#000000" font-family="sans-serif" font-size="14" lengthAdjust="spacing" textLength="116.71" x="660.4154" y="466.2625">Demo auto-login</text></g><!--entity UC_Pwd--><g class="entity" data-qualified-name="Skyline Maintenance System.UC_Pwd" data-source-line="16" id="ent0012"><ellipse cx="353.6574" cy="675.6115" fill="#F1F1F1" rx="77.5074" ry="17.9015" style="stroke:#181818;stroke-width:0.5;"/><text fill="#000000" font-family="sans-serif" font-size="14" lengthAdjust="spacing" textLength="124.7627" x="291.2761" y="680.2599">Change password</text></g><!--entity UC_Dash--><g class="entity" data-qualified-name="Skyline Maintenance System.UC_Dash" data-source-line="17" id="ent0013"><ellipse cx="353.6588" cy="605.6138" fill="#F1F1F1" rx="72.3688" ry="16.8738" style="stroke:#181818;stroke-width:0.5;"/><text fill="#000000" font-family="sans-serif" font-size="14" lengthAdjust="spacing" textLength="112.2871" x="297.5152" y="610.2622">View dashboard</text></g><!--entity UC_Cust--><g class="entity" data-qualified-name="Skyline Maintenance System.UC_Cust" data-source-line="19" id="ent0014"><ellipse cx="1036.3078" cy="535.6116" fill="#F1F1F1" rx="81.1078" ry="18.6216" style="stroke:#181818;stroke-width:0.5;"/><text fill="#000000" font-family="sans-serif" font-size="14" lengthAdjust="spacing" textLength="133.2803" x="969.6677" y="540.26">Manage customers</text></g><!--entity UC_Master--><g class="entity" data-qualified-name="Skyline Maintenance System.UC_Master" data-source-line="20" id="ent0015"><ellipse cx="353.6567" cy="920.6116" fill="#F1F1F1" rx="118.4767" ry="36.4816" style="stroke:#181818;stroke-width:0.5;"/><text fill="#000000" font-family="sans-serif" font-size="14" lengthAdjust="spacing" textLength="145.4141" x="280.9497" y="907.3966">Manage master data</text><text fill="#000000" font-family="sans-serif" font-size="14" lengthAdjust="spacing" textLength="158.8672" x="274.2231" y="923.6935">(areas, devices, faults,</text><text fill="#000000" font-family="sans-serif" font-size="14" lengthAdjust="spacing" textLength="168.6221" x="269.3457" y="939.9904">exhibitions, reps, taxes)</text></g><!--entity UC_Users--><g class="entity" data-qualified-name="Skyline Maintenance System.UC_Users" data-source-line="21" id="ent0016"><ellipse cx="353.6634" cy="1007.6067" fill="#F1F1F1" rx="66.6834" ry="15.7367" style="stroke:#181818;stroke-width:0.5;"/><text fill="#000000" font-family="sans-serif" font-size="14" lengthAdjust="spacing" textLength="97.8906" x="304.718" y="1012.2551">Manage users</text></g><!--entity UC_Logs--><g class="entity" data-qualified-name="Skyline Maintenance System.UC_Logs" data-source-line="22" id="ent0017"><ellipse cx="353.6631" cy="1077.6106" fill="#F1F1F1" rx="83.2531" ry="19.0506" style="stroke:#181818;stroke-width:0.5;"/><text fill="#000000" font-family="sans-serif" font-size="14" lengthAdjust="spacing" textLength="138.2842" x="284.521" y="1082.2591">View operation logs</text></g><!--entity UC_CreateReq--><g class="entity" data-qualified-name="Skyline Maintenance System.UC_CreateReq" data-source-line="24" id="ent0018"><ellipse cx="718.7703" cy="754.6061" fill="#F1F1F1" rx="111.4303" ry="24.6861" style="stroke:#181818;stroke-width:0.5;"/><text fill="#000000" font-family="sans-serif" font-size="14" lengthAdjust="spacing" textLength="200.9697" x="618.2855" y="759.2545">Create maintenance request</text></g><!--entity UC_Assign--><g class="entity" data-qualified-name="Skyline Maintenance System.UC_Assign" data-source-line="25" id="ent0019"><ellipse cx="353.6642" cy="1388.6148" fill="#F1F1F1" rx="87.6742" ry="19.9348" style="stroke:#181818;stroke-width:0.5;"/><text fill="#000000" font-family="sans-serif" font-size="14" lengthAdjust="spacing" textLength="148.4561" x="279.4362" y="1393.2633">Assign/dispatch work</text></g><!--entity UC_Execute--><g class="entity" data-qualified-name="Skyline Maintenance System.UC_Execute" data-source-line="26" id="ent0020"><ellipse cx="353.6643" cy="1560.6069" fill="#F1F1F1" rx="128.6843" ry="28.1369" style="stroke:#181818;stroke-width:0.5;"/><text fill="#000000" font-family="sans-serif" font-size="14" lengthAdjust="spacing" textLength="237.7949" x="234.7668" y="1565.2553">Execute &amp; complete maintenance</text></g><!--entity UC_Attach--><g class="entity" data-qualified-name="Skyline Maintenance System.UC_Attach" data-source-line="27" id="ent0021"><ellipse cx="718.7701" cy="1560.614" fill="#F1F1F1" rx="87.7701" ry="19.954" style="stroke:#181818;stroke-width:0.5;"/><text fill="#000000" font-family="sans-serif" font-size="14" lengthAdjust="spacing" textLength="148.6748" x="644.4327" y="1565.2625">Manage attachments</text></g><!--entity UC_Follow--><g class="entity" data-qualified-name="Skyline Maintenance System.UC_Follow" data-source-line="28" id="ent0022"><ellipse cx="353.6625" cy="1241.6125" fill="#F1F1F1" rx="111.2625" ry="24.6525" style="stroke:#181818;stroke-width:0.5;"/><text fill="#000000" font-family="sans-serif" font-size="14" lengthAdjust="spacing" textLength="200.6074" x="253.3587" y="1246.2609">Follow up after maintenance</text></g><!--entity UC_Enq--><g class="entity" data-qualified-name="Skyline Maintenance System.UC_Enq" data-source-line="29" id="ent0023"><ellipse cx="353.6589" cy="1317.6138" fill="#F1F1F1" rx="68.3689" ry="16.0738" style="stroke:#181818;stroke-width:0.5;"/><text fill="#000000" font-family="sans-serif" font-size="14" lengthAdjust="spacing" textLength="102.2383" x="302.5398" y="1322.2622">Status enquiry</text></g><!--entity UC_Sched--><g class="entity" data-qualified-name="Skyline Maintenance System.UC_Sched" data-source-line="31" id="ent0024"><ellipse cx="353.6554" cy="1470.6071" fill="#F1F1F1" rx="120.8354" ry="26.5671" style="stroke:#181818;stroke-width:0.5;"/><text fill="#000000" font-family="sans-serif" font-size="14" lengthAdjust="spacing" textLength="221.1357" x="243.0875" y="1475.2555">Schedule periodic maintenance</text></g><!--entity UC_Due--><g class="entity" data-qualified-name="Skyline Maintenance System.UC_Due" data-source-line="32" id="ent0025"><ellipse cx="353.6582" cy="750.6056" fill="#F1F1F1" rx="100.5782" ry="22.5156" style="stroke:#181818;stroke-width:0.5;"/><text fill="#000000" font-family="sans-serif" font-size="14" lengthAdjust="spacing" textLength="177.3311" x="264.9927" y="755.2541">Trigger due maintenance</text></g><!--entity UC_Inv--><g class="entity" data-qualified-name="Skyline Maintenance System.UC_Inv" data-source-line="34" id="ent0026"><ellipse cx="353.6585" cy="1156.6077" fill="#F1F1F1" rx="112.2385" ry="24.8477" style="stroke:#181818;stroke-width:0.5;"/><text fill="#000000" font-family="sans-serif" font-size="14" lengthAdjust="spacing" textLength="202.7129" x="252.3021" y="1161.2561">Manage warehouses &amp; items</text></g><!--entity UC_PO--><g class="entity" data-qualified-name="Skyline Maintenance System.UC_PO" data-source-line="35" id="ent0027"><ellipse cx="718.769" cy="673.6118" fill="#F1F1F1" rx="92.909" ry="20.9818" style="stroke:#181818;stroke-width:0.5;"/><text fill="#000000" font-family="sans-serif" font-size="14" lengthAdjust="spacing" textLength="160.2959" x="638.621" y="678.2602">Record purchase order</text></g><!--entity UC_Bill--><g class="entity" data-qualified-name="Skyline Maintenance System.UC_Bill" data-source-line="36" id="ent0028"><ellipse cx="353.663" cy="535.6086" fill="#F1F1F1" rx="77.093" ry="17.8186" style="stroke:#181818;stroke-width:0.5;"/><text fill="#000000" font-family="sans-serif" font-size="14" lengthAdjust="spacing" textLength="123.7715" x="291.7772" y="540.257">Issue receipt / bill</text></g><!--entity UC_Convert--><g class="entity" data-qualified-name="Skyline Maintenance System.UC_Convert" data-source-line="37" id="ent0029"><ellipse cx="353.6637" cy="828.6147" fill="#F1F1F1" rx="91.3737" ry="20.6747" style="stroke:#181818;stroke-width:0.5;"/><text fill="#000000" font-family="sans-serif" font-size="14" lengthAdjust="spacing" textLength="156.8438" x="275.2419" y="833.2632">Convert request to bill</text></g><!--entity UC_Report--><g class="entity" data-qualified-name="Skyline Maintenance System.UC_Report" data-source-line="38" id="ent0030"><ellipse cx="718.771" cy="535.6102" fill="#F1F1F1" rx="90.801" ry="20.5602" style="stroke:#181818;stroke-width:0.5;"/><text fill="#000000" font-family="sans-serif" font-size="14" lengthAdjust="spacing" textLength="155.5518" x="640.9951" y="540.2586">Generate report (PDF)</text></g><!--entity Admin--><g class="entity" data-qualified-name="Admin" data-source-line="4" id="ent0001"><ellipse cx="83.9903" cy="945.96" fill="#F1F1F1" rx="8" ry="8" style="stroke:#181818;stroke-width:0.5;"/><path d="M83.9903,953.96 L83.9903,980.96 M70.9903,961.96 L96.9903,961.96 M83.9903,980.96 L70.9903,995.96 M83.9903,980.96 L96.9903,995.96" fill="none" style="stroke:#181818;stroke-width:0.5;"/><text fill="#000000" font-family="sans-serif" font-size="14" lengthAdjust="spacing" textLength="101.5205" x="33.23" y="1010.4551">System Admin</text></g><!--entity Manager--><g class="entity" data-qualified-name="Manager" data-source-line="5" id="ent0002"><ellipse cx="83.9878" cy="1507.96" fill="#F1F1F1" rx="8" ry="8" style="stroke:#181818;stroke-width:0.5;"/><path d="M83.9878,1515.96 L83.9878,1542.96 M70.9878,1523.96 L96.9878,1523.96 M83.9878,1542.96 L70.9878,1557.96 M83.9878,1542.96 L96.9878,1557.96" fill="none" style="stroke:#181818;stroke-width:0.5;"/><text fill="#000000" font-family="sans-serif" font-size="14" lengthAdjust="spacing" textLength="155.9756" x="6" y="1572.4551">Maintenance Manager</text></g><!--entity Tech--><g class="entity" data-qualified-name="Tech" data-source-line="6" id="ent0003"><ellipse cx="83.9886" cy="1719.96" fill="#F1F1F1" rx="8" ry="8" style="stroke:#181818;stroke-width:0.5;"/><path d="M83.9886,1727.96 L83.9886,1754.96 M70.9886,1735.96 L96.9886,1735.96 M83.9886,1754.96 L70.9886,1769.96 M83.9886,1754.96 L96.9886,1769.96" fill="none" style="stroke:#181818;stroke-width:0.5;"/><text fill="#000000" font-family="sans-serif" font-size="14" lengthAdjust="spacing" textLength="75.5371" x="46.22" y="1784.4551">Technician</text></g><!--entity Acc--><g class="entity" data-qualified-name="Acc" data-source-line="7" id="ent0004"><ellipse cx="83.9869" cy="433.96" fill="#F1F1F1" rx="8" ry="8" style="stroke:#181818;stroke-width:0.5;"/><path d="M83.9869,441.96 L83.9869,468.96 M70.9869,449.96 L96.9869,449.96 M83.9869,468.96 L70.9869,483.96 M83.9869,468.96 L96.9869,483.96" fill="none" style="stroke:#181818;stroke-width:0.5;"/><text fill="#000000" font-family="sans-serif" font-size="14" lengthAdjust="spacing" textLength="79.7139" x="44.13" y="498.4551">Accountant</text></g><!--entity Follow--><g class="entity" data-qualified-name="Follow" data-source-line="8" id="ent0005"><ellipse cx="83.9839" cy="1194.96" fill="#F1F1F1" rx="8" ry="8" style="stroke:#181818;stroke-width:0.5;"/><path d="M83.9839,1202.96 L83.9839,1229.96 M70.9839,1210.96 L96.9839,1210.96 M83.9839,1229.96 L70.9839,1244.96 M83.9839,1229.96 L96.9839,1244.96" fill="none" style="stroke:#181818;stroke-width:0.5;"/><text fill="#000000" font-family="sans-serif" font-size="14" lengthAdjust="spacing" textLength="118.5078" x="24.73" y="1259.4551">Follow-up Officer</text></g><!--entity Enq--><g class="entity" data-qualified-name="Enq" data-source-line="9" id="ent0006"><ellipse cx="83.9862" cy="1305.96" fill="#F1F1F1" rx="8" ry="8" style="stroke:#181818;stroke-width:0.5;"/><path d="M83.9862,1313.96 L83.9862,1340.96 M70.9862,1321.96 L96.9862,1321.96 M83.9862,1340.96 L70.9862,1355.96 M83.9862,1340.96 L96.9862,1355.96" fill="none" style="stroke:#181818;stroke-width:0.5;"/><text fill="#000000" font-family="sans-serif" font-size="14" lengthAdjust="spacing" textLength="104.6924" x="31.64" y="1370.4551">Enquiry Officer</text></g><!--entity Demo--><g class="entity" data-qualified-name="Demo" data-source-line="10" id="ent0007"><ellipse cx="353.6639" cy="270.96" fill="#F1F1F1" rx="8" ry="8" style="stroke:#181818;stroke-width:0.5;"/><path d="M353.6639,278.96 L353.6639,305.96 M340.6639,286.96 L366.6639,286.96 M353.6639,305.96 L340.6639,320.96 M353.6639,305.96 L366.6639,320.96" fill="none" style="stroke:#181818;stroke-width:0.5;"/><text fill="#000000" font-family="sans-serif" font-size="14" lengthAdjust="spacing" textLength="90.5078" x="308.41" y="335.4551">Demo Visitor</text></g><!--entity Sys--><g class="entity" data-qualified-name="Sys" data-source-line="11" id="ent0008"><ellipse cx="83.9859" cy="720.96" fill="#F1F1F1" rx="8" ry="8" style="stroke:#181818;stroke-width:0.5;"/><path d="M83.9859,728.96 L83.9859,755.96 M70.9859,736.96 L96.9859,736.96 M83.9859,755.96 L70.9859,770.96 M83.9859,755.96 L96.9859,770.96" fill="none" style="stroke:#181818;stroke-width:0.5;"/><text fill="#000000" font-family="sans-serif" font-size="14" lengthAdjust="spacing" textLength="127.0117" x="20.48" y="785.4551">Scheduler/System</text></g><!--link Admin to UC_Users--><g class="link" data-entity-1="ent0001" data-entity-2="ent0016" data-link-type="dependency" data-source-line="41" id="lnk31"><path d="M135.02,981.59 C179.96,986.97 241.0353,994.2667 288.5653,999.9467" fill="none" id="Admin-to-UC_Users" style="stroke:#181818;stroke-width:1;"/><polygon fill="#181818" points="293.53,1000.54,285.0682,995.5003,288.5653,999.9467,284.1189,1003.4438,293.53,1000.54" style="stroke:#181818;stroke-width:1;stroke-linejoin:miter;stroke-miterlimit:10;"/></g><!--link Admin to UC_Master--><g class="link" data-entity-1="ent0001" data-entity-2="ent0015" data-link-type="dependency" data-source-line="42" id="lnk32"><path d="M135.02,965.33 C168.54,958.44 208.8925,950.157 249.4525,941.817" fill="none" id="Admin-to-UC_Master" style="stroke:#181818;stroke-width:1;"/><polygon fill="#181818" points="254.35,940.81,244.7288,938.7046,249.4525,941.817,246.3401,946.5407,254.35,940.81" style="stroke:#181818;stroke-width:1;stroke-linejoin:miter;stroke-miterlimit:10;"/></g><!--link Admin to UC_Cust--><g class="link" data-entity-1="ent0001" data-entity-2="ent0014" data-link-type="dependency" data-source-line="43" id="lnk33"><path d="M107.36,937.13 C125.54,903.79 150.05,853.65 161.98,806.61 C177.36,745.94 155.21,287.31 200.98,244.61 C456.72,6 915.124,419.7764 1013.124,513.9064" fill="none" id="Admin-to-UC_Cust" style="stroke:#181818;stroke-width:1;"/><polygon fill="#181818" points="1016.73,517.37,1013.0101,508.2507,1013.124,513.9064,1007.4683,514.0203,1016.73,517.37" style="stroke:#181818;stroke-width:1;stroke-linejoin:miter;stroke-miterlimit:10;"/></g><!--link Admin to UC_Logs--><g class="link" data-entity-1="ent0001" data-entity-2="ent0017" data-link-type="dependency" data-source-line="44" id="lnk34"><path d="M135.19,1007.68 C155.08,1019.32 178.53,1031.78 200.98,1040.61 C228.47,1051.43 255.1666,1058.6764 282.3666,1064.6564" fill="none" id="Admin-to-UC_Logs" style="stroke:#181818;stroke-width:1;"/><polygon fill="#181818" points="287.25,1065.73,279.3188,1059.8908,282.3666,1064.6564,277.601,1067.7042,287.25,1065.73" style="stroke:#181818;stroke-width:1;stroke-linejoin:miter;stroke-miterlimit:10;"/></g><!--link Admin to UC_Inv--><g class="link" data-entity-1="ent0001" data-entity-2="ent0026" data-link-type="dependency" data-source-line="45" id="lnk35"><path d="M107.8,1014.23 C128.34,1045.73 161.35,1089.06 200.98,1114.61 C219.69,1126.68 237.0533,1133.9432 258.5933,1140.1132" fill="none" id="Admin-to-UC_Inv" style="stroke:#181818;stroke-width:1;"/><polygon fill="#181818" points="263.4,1141.49,255.8494,1135.1663,258.5933,1140.1132,253.6465,1142.857,263.4,1141.49" style="stroke:#181818;stroke-width:1;stroke-linejoin:miter;stroke-miterlimit:10;"/></g><!--link Admin to UC_Convert--><g class="link" data-entity-1="ent0001" data-entity-2="ent0029" data-link-type="dependency" data-source-line="46" id="lnk36"><path d="M116.77,937.03 C138.22,913.39 168.48,884.36 200.98,866.61 C223.97,854.05 246.3053,846.6723 271.2853,840.9723" fill="none" id="Admin-to-UC_Convert" style="stroke:#181818;stroke-width:1;"/><polygon fill="#181818" points="276.16,839.86,266.4957,837.9624,271.2853,840.9723,268.2754,845.7619,276.16,839.86" style="stroke:#181818;stroke-width:1;stroke-linejoin:miter;stroke-miterlimit:10;"/></g><!--link Manager to UC_CreateReq--><g class="link" data-entity-1="ent0002" data-entity-2="ent0018" data-link-type="dependency" data-source-line="48" id="lnk37"><path d="M104.25,1576.08 C122.21,1607.2 152.2,1648.83 191.98,1667.61 C346.86,1740.73 447.35,1779.14 577.34,1667.61 C594.88,1652.57 694.0061,929.3944 713.7161,784.4944" fill="none" id="Manager-to-UC_CreateReq" style="stroke:#181818;stroke-width:1;"/><polygon fill="#181818" points="714.39,779.54,709.2134,787.9187,713.7161,784.4944,717.1404,788.997,714.39,779.54" style="stroke:#181818;stroke-width:1;stroke-linejoin:miter;stroke-miterlimit:10;"/></g><!--link Manager to UC_Assign--><g class="link" data-entity-1="ent0002" data-entity-2="ent0019" data-link-type="dependency" data-source-line="49" id="lnk38"><path d="M115.91,1499.12 C137.36,1474.89 167.91,1444.87 200.98,1426.61 C224.62,1413.56 247.9193,1405.9959 273.5393,1400.2959" fill="none" id="Manager-to-UC_Assign" style="stroke:#181818;stroke-width:1;"/><polygon fill="#181818" points="278.42,1399.21,268.7661,1397.26,273.5393,1400.2959,270.5035,1405.0691,278.42,1399.21" style="stroke:#181818;stroke-width:1;stroke-linejoin:miter;stroke-miterlimit:10;"/></g><!--link Manager to UC_Sched--><g class="link" data-entity-1="ent0002" data-entity-2="ent0024" data-link-type="dependency" data-source-line="50" id="lnk39"><path d="M162.41,1518.23 C197,1509.58 232.8795,1500.5937 267.7695,1491.8637" fill="none" id="Manager-to-UC_Sched" style="stroke:#181818;stroke-width:1;"/><polygon fill="#181818" points="272.62,1490.65,262.9182,1488.9542,267.7695,1491.8637,264.8601,1496.715,272.62,1490.65" style="stroke:#181818;stroke-width:1;stroke-linejoin:miter;stroke-miterlimit:10;"/></g><!--link Manager to UC_Report--><g class="link" data-entity-1="ent0002" data-entity-2="ent0030" data-link-type="dependency" data-source-line="51" id="lnk40"><path d="M136.25,1576.15 C155.52,1588.39 178.27,1600.37 200.98,1606.61 C363.08,1651.18 480.86,1706.3 577.34,1568.61 C636.87,1483.67 563.77,729.74 607.34,635.61 C623.53,600.64 654.1246,575.2658 680.3446,557.8558" fill="none" id="Manager-to-UC_Report" style="stroke:#181818;stroke-width:1;"/><polygon fill="#181818" points="684.51,555.09,674.7997,556.7361,680.3446,557.8558,679.225,563.4007,684.51,555.09" style="stroke:#181818;stroke-width:1;stroke-linejoin:miter;stroke-miterlimit:10;"/></g><!--link Tech to UC_Execute--><g class="link" data-entity-1="ent0003" data-entity-2="ent0020" data-link-type="dependency" data-source-line="53" id="lnk41"><path d="M122.21,1723.33 C172.92,1687.53 259.166,1626.6346 310.376,1590.4646" fill="none" id="Tech-to-UC_Execute" style="stroke:#181818;stroke-width:1;"/><polygon fill="#181818" points="314.46,1587.58,304.8011,1589.505,310.376,1590.4646,309.4164,1596.0395,314.46,1587.58" style="stroke:#181818;stroke-width:1;stroke-linejoin:miter;stroke-miterlimit:10;"/></g><!--link Tech to UC_Attach--><g class="link" data-entity-1="ent0003" data-entity-2="ent0021" data-link-type="dependency" data-source-line="54" id="lnk42"><path d="M122.1,1758.93 C207.74,1778.35 423.55,1815.3 577.34,1738.61 C645.68,1704.53 688.9957,1624.4202 706.9857,1585.4202" fill="none" id="Tech-to-UC_Attach" style="stroke:#181818;stroke-width:1;"/><polygon fill="#181818" points="709.08,1580.88,701.678,1587.377,706.9857,1585.4202,708.9424,1590.7279,709.08,1580.88" style="stroke:#181818;stroke-width:1;stroke-linejoin:miter;stroke-miterlimit:10;"/></g><!--link Acc to UC_Bill--><g class="link" data-entity-1="ent0004" data-entity-2="ent0028" data-link-type="dependency" data-source-line="56" id="lnk43"><path d="M124.21,477.01 C146.57,484.42 175.19,493.54 200.98,500.61 C231.99,509.12 262.0676,516.2019 290.5976,522.5019" fill="none" id="Acc-to-UC_Bill" style="stroke:#181818;stroke-width:1;"/><polygon fill="#181818" points="295.48,523.58,287.5542,517.7335,290.5976,522.5019,285.8292,525.5453,295.48,523.58" style="stroke:#181818;stroke-width:1;stroke-linejoin:miter;stroke-miterlimit:10;"/></g><!--link Acc to UC_Report--><g class="link" data-entity-1="ent0004" data-entity-2="ent0030" data-link-type="dependency" data-source-line="57" id="lnk44"><path d="M124.18,446.79 C213.69,411.24 436.29,339.48 577.34,437.61 C601.49,454.41 585.23,477.22 607.34,496.61 C619.96,507.67 631.2095,513.9456 647.0395,519.6856" fill="none" id="Acc-to-UC_Report" style="stroke:#181818;stroke-width:1;"/><polygon fill="#181818" points="651.74,521.39,644.6426,514.5616,647.0395,519.6856,641.9155,522.0825,651.74,521.39" style="stroke:#181818;stroke-width:1;stroke-linejoin:miter;stroke-miterlimit:10;"/></g><!--link Follow to UC_Follow--><g class="link" data-entity-1="ent0005" data-entity-2="ent0022" data-link-type="dependency" data-source-line="59" id="lnk45"><path d="M143.73,1228.34 C173.74,1230.25 206.21,1232.3137 241.08,1234.5237" fill="none" id="Follow-to-UC_Follow" style="stroke:#181818;stroke-width:1;"/><polygon fill="#181818" points="246.07,1234.84,237.341,1230.2787,241.08,1234.5237,236.835,1238.2627,246.07,1234.84" style="stroke:#181818;stroke-width:1;stroke-linejoin:miter;stroke-miterlimit:10;"/></g><!--link Enq to UC_Enq--><g class="link" data-entity-1="ent0006" data-entity-2="ent0023" data-link-type="dependency" data-source-line="60" id="lnk46"><path d="M136.6,1332.14 C179.59,1329.25 236.0813,1325.4555 282.4713,1322.3355" fill="none" id="Enq-to-UC_Enq" style="stroke:#181818;stroke-width:1;"/><polygon fill="#181818" points="287.46,1322,278.2119,1318.613,282.4713,1322.3355,278.7487,1326.5949,287.46,1322" style="stroke:#181818;stroke-width:1;stroke-linejoin:miter;stroke-miterlimit:10;"/></g><!--link Demo to UC_Demo--><g class="link" data-entity-1="ent0007" data-entity-2="ent0011" data-link-type="dependency" data-source-line="61" id="lnk47"><path d="M399.25,309.27 C445.31,319.21 518.55,337.8 577.34,365.61 C623.53,387.46 667.5289,420.4801 693.7389,441.6301" fill="none" id="Demo-to-UC_Demo" style="stroke:#181818;stroke-width:1;"/><polygon fill="#181818" points="697.63,444.77,693.1379,436.0052,693.7389,441.6301,688.114,442.231,697.63,444.77" style="stroke:#181818;stroke-width:1;stroke-linejoin:miter;stroke-miterlimit:10;"/></g><!--link Sys to UC_Due--><g class="link" data-entity-1="ent0008" data-entity-2="ent0025" data-link-type="dependency" data-source-line="62" id="lnk48"><path d="M147.75,750.61 C178.96,750.61 212.44,750.61 247.59,750.61" fill="none" id="Sys-to-UC_Due" style="stroke:#181818;stroke-width:1;"/><polygon fill="#181818" points="252.59,750.61,243.59,746.61,247.59,750.61,243.59,754.61,252.59,750.61" style="stroke:#181818;stroke-width:1;stroke-linejoin:miter;stroke-miterlimit:10;"/></g><!--reverse link UC_Login to UC_Demo--><g class="link" data-entity-1="ent0010" data-entity-2="ent0011" data-link-type="dependency" data-source-line="64" id="lnk49"><path d="M444.3399,463.1218 C506.4699,462.7718 585.02,462.34 644.34,462.02" fill="none" id="UC_Login-backto-UC_Demo" style="stroke:#181818;stroke-width:1;stroke-dasharray:7,7;"/><polygon fill="#181818" points="439.34,463.15,448.3624,467.0992,444.3399,463.1218,448.3173,459.0994,439.34,463.15" style="stroke:#181818;stroke-width:1;stroke-linejoin:miter;stroke-miterlimit:10;"/><text fill="#000000" font-family="sans-serif" font-size="13" lengthAdjust="spacing" textLength="61.1851" x="514.34" y="458.6769">&#171;extend&#187;</text></g><!--link UC_CreateReq to UC_Cust--><g class="link" data-entity-1="ent0018" data-entity-2="ent0014" data-link-type="dependency" data-source-line="65" id="lnk50"><path d="M783.13,734.16 C799.01,727.91 815.65,720.34 830.2,711.61 C907.67,665.15 981.1529,592.6623 1014.5529,557.7623" fill="none" id="UC_CreateReq-to-UC_Cust" style="stroke:#181818;stroke-width:1;stroke-dasharray:7,7;"/><polygon fill="#181818" points="1018.01,554.15,1008.8975,557.8865,1014.5529,557.7623,1014.6772,563.4178,1018.01,554.15" style="stroke:#181818;stroke-width:1;stroke-linejoin:miter;stroke-miterlimit:10;"/><text fill="#000000" font-family="sans-serif" font-size="13" lengthAdjust="spacing" textLength="63.0068" x="861.2" y="642.6769">&#171;include&#187;</text></g><!--link UC_Execute to UC_Attach--><g class="link" data-entity-1="ent0020" data-entity-2="ent0021" data-link-type="dependency" data-source-line="66" id="lnk51"><path d="M482.68,1560.61 C531.68,1560.61 581.4,1560.61 625.71,1560.61" fill="none" id="UC_Execute-to-UC_Attach" style="stroke:#181818;stroke-width:1;stroke-dasharray:7,7;"/><polygon fill="#181818" points="630.71,1560.61,621.71,1556.61,625.71,1560.61,621.71,1564.61,630.71,1560.61" style="stroke:#181818;stroke-width:1;stroke-linejoin:miter;stroke-miterlimit:10;"/><text fill="#000000" font-family="sans-serif" font-size="13" lengthAdjust="spacing" textLength="63.0068" x="513.34" y="1556.6769">&#171;include&#187;</text></g><!--link UC_Due to UC_CreateReq--><g class="link" data-entity-1="ent0025" data-entity-2="ent0018" data-link-type="dependency" data-source-line="67" id="lnk52"><path d="M454.36,751.71 C501.71,752.23 553.4403,752.8056 602.1203,753.3356" fill="none" id="UC_Due-to-UC_CreateReq" style="stroke:#181818;stroke-width:1;stroke-dasharray:7,7;"/><polygon fill="#181818" points="607.12,753.39,598.1641,749.2923,602.1203,753.3356,598.077,757.2918,607.12,753.39" style="stroke:#181818;stroke-width:1;stroke-linejoin:miter;stroke-miterlimit:10;"/><text fill="#000000" font-family="sans-serif" font-size="13" lengthAdjust="spacing" textLength="63.0068" x="513.34" y="748.6769">&#171;include&#187;</text></g><!--link UC_Bill to UC_Report--><g class="link" data-entity-1="ent0028" data-entity-2="ent0030" data-link-type="dependency" data-source-line="68" id="lnk53"><path d="M431.22,535.61 C488.55,535.61 562.15,535.61 622.53,535.61" fill="none" id="UC_Bill-to-UC_Report" style="stroke:#181818;stroke-width:1;stroke-dasharray:7,7;"/><polygon fill="#181818" points="627.53,535.61,618.53,531.61,622.53,535.61,618.53,539.61,627.53,535.61" style="stroke:#181818;stroke-width:1;stroke-linejoin:miter;stroke-miterlimit:10;"/><text fill="#000000" font-family="sans-serif" font-size="13" lengthAdjust="spacing" textLength="61.1851" x="514.34" y="531.6769">&#171;extend&#187;</text></g><?plantuml-src TLLDJ-Cm4BtdLunoM86qBVSLGc8Bh90MWVWw8QsCCssi9dRm1ssrsl--OyTEdJPmGFNpUpFZyHkdmQK5gq2BLMsX4Xgv5KeMPYranpHheMDypLRuP7SDWjzcSjLWKJ1kbORoQMSijd1PjKAM4F-OwO54kcD2MfHCSeGx9YcSBZqf_awqP-Ir55omVQGGo-E9SycvSfAAi6CEuOboevf6RMQkW_lbKd2VAr1wFB6kvOSJUfTp0elmHBd2Li6hC89M-TayFfoVrrYv1lLPtuaoScXL54ExYBVUDKBwu-zRaHH_2m1da3D3n4jdQvHMS6OHJdwhbP2dsL53y9V5dx2HwqAnp5arQ_pMI9BfGksPR55JWKYtRCn6wUehsSEcobMl0ZTGCLE_ApObIic8KUIw_iA1EsDLYzgKqxe5xK_8MaRzqfJNiZTvmZGoynqg_AJxenzBvXfhlhz9tDRYNNWR4wgne_-MRT6SbZ7yNOWpaO3M4pNjwthn-qTzK1rgvjC1TVv0FboM6VLXGRLRVw2z6JH-E3J9rR4FWVQ87oE362DMygmIfcEMrq3NjfumI4_BXTTRv8woVWEksgx1SG5b4aRQH7kOjOpNBRdpi4anPTZFXVt80OqYM_gh6-SRX74oC-6JPTOPm7v8lpIO7zQHB4uZq9K8LGb-cB6N1LgkUwRtR-MjvV2unipF3gVil24hrefGGxqLDD93UthPhVpCLO_8QTAWSvhN7g05wl9uvEvpqQqnBho_A3eBP_0kccRYrdyIF3AQaf-eRNANV-h7ocYqdfOhVw7qjlOvEqKHJXwkRawFgtmCkyM_eWWlFinc5_j96K5nwaPO6FGH4aPbXFZkZKMns29-FWPyc9Q3ZJWA1sXlWWCm7gVmdvo4fO78iMZrWZux2GgjpzOfL9o1Y4Qhat67yEJXy7Z7TNYXwTCmhBtfqeiFv_Dv8i4FE3_7BNcrkhWeyWR0V3wqDx24v8shiAUbTo2I-gCSqoZl46S8VCJofqwq_iIZilu3?></g></svg>